<svg xmlns="http://www.w3.org/2000/svg" viewBox="0 0 1440 320">
   <path fill="#707070" fill-opacity="1" d="M0,160L80,154.7C160,149,320,139,480,154.7C640,171,800,213,960,213.3C1120,213,1280,171,1360,149.3L1440,128L1440,320L1360,320C1280,320,1120,320,960,320C800,320,640,320,480,320C320,320,160,320,80,320L0,320Z"></path>
    <path fill="#B8B8B8" fill-opacity="1" d="M0,192L80,181.3C160,171,320,149,480,154.7C640,160,800,192,960,186.7C1120,181,1280,139,1360,117.3L1440,96L1440,320L1360,320C1280,320,1120,320,960,320C800,320,640,320,480,320C320,320,160,320,80,320L0,320Z"></path>
    <path fill="#F0F0F0" fill-opacity="1" d="M0,224L80,213.3C160,203,320,181,480,181.3C640,181,800,203,960,218.7C1120,235,1280,245,1360,250.7L1440,256L1440,320L1360,320C1280,320,1120,320,960,320C800,320,640,320,480,320C320,320,160,320,80,320L0,320Z"></path>
</svg>